# xmcd
#
# Track frame offsets:
#	150
#	18069
#	34419
#	53433
#	71123
#	88684
#	102716
#	118915
#	136223
#	147256
#	173776
#
# Disc length: 2617 seconds
#
# Revision: 1
# Processed by: cddbd v1.5.1PL2 Copyright (c) Steve Scherf et al.
# Submitted via: audiograbber 1.83.01
#
DISCID=9a0a370b
DTITLE=Baillie and the Boys - The Portrait
DYEAR=1900
DGENRE=Country
TTITLE0=If I Didn't Love You
TTITLE1=The Portrait
TTITLE2=I'm Not Letting Go
TTITLE3="Til I Get It Right
TTITLE4=All I Can Do
TTITLE5=Bachelor Girl
TTITLE6=Still One Broken
TTITLE7=Anchor Me
TTITLE8=Lonesome Road
TTITLE9=Beautiful
TTITLE10=Data Track
EXTD=
EXTT0=
EXTT1=
EXTT2=
EXTT3=
EXTT4=
EXTT5=
EXTT6=
EXTT7=
EXTT8=
EXTT9=
EXTT10=
PLAYORDER=
